<svg xmlns="http://www.w3.org/2000/svg" width="256" height="256" viewBox="0 0 256 256" version="1.1"><path d="M 160.624 1.953 C 153.055 3.597, 150.476 3.733, 143.124 2.876 C 130.019 1.349, 117.898 2.952, 107.176 7.632 L 101.852 9.955 92.631 7.559 C 67.338 0.987, 48.403 1.594, 32.357 9.489 C 8.708 21.125, -0.763 49.054, 6.046 87.075 C 13.328 127.736, 27.567 166.706, 40.187 180.514 C 49.566 190.776, 59.622 193.484, 69.702 188.461 L 74.797 185.922 78.571 188.483 C 80.646 189.892, 84.854 191.774, 87.921 192.665 C 94.746 194.650, 108.007 194.708, 113.554 192.779 L 117.609 191.369 118.719 207.434 C 121.107 241.966, 130.646 256, 151.731 256 C 169.944 256, 185.633 246.924, 192.495 232.419 C 196.871 223.170, 200.269 204.125, 200.977 184.884 C 200.990 184.545, 205.387 184.041, 210.750 183.765 C 222.624 183.153, 230.960 180.503, 240.096 174.433 C 252.796 165.996, 256.077 156.062, 248.749 148.239 C 245.340 144.600, 240.575 143.850, 230.443 145.356 C 225.524 146.086, 221.392 146.610, 221.259 146.518 C 221.127 146.427, 223.688 141.208, 226.950 134.922 C 243.066 103.867, 251.650 73.212, 250.815 49.700 C 250.297 35.139, 248.586 31.245, 238.233 21.065 C 229.776 12.751, 219.865 6.913, 207.500 2.964 C 197.366 -0.272, 173.262 -0.792, 160.624 1.953 M 174.500 7.137 C 169.550 7.488, 162.461 8.538, 158.746 9.472 C 152.881 10.945, 150.791 11.013, 142.863 9.982 C 128.947 8.174, 114.951 10.410, 105.956 15.881 C 102.922 17.726, 102.784 17.719, 95.392 15.372 C 72.990 8.258, 49.257 8.264, 35.231 15.389 C 23.912 21.138, 15.412 32.846, 12.467 46.743 C 8.341 66.211, 13.601 100.186, 26.638 138.282 C 36.731 167.776, 47.831 183.072, 59.265 183.245 C 65.316 183.337, 68.900 181.084, 76.661 172.309 C 91.265 155.801, 93.334 153.825, 95.466 154.350 C 96.585 154.625, 99.671 155.456, 102.324 156.196 L 107.149 157.541 104.986 160.291 C 102.266 163.749, 98.951 165.450, 92.110 166.898 C 84.691 168.468, 80.485 170.641, 79.138 173.597 C 74.984 182.714, 95.046 190.145, 111.014 185.403 C 113.971 184.525, 117.991 182.718, 119.946 181.388 L 123.500 178.970 124.139 199.735 C 124.490 211.156, 125.288 222.676, 125.912 225.336 C 128.980 238.408, 137.327 247.429, 148.175 249.396 C 157.569 251.100, 174.459 245.547, 181.295 238.508 C 187.557 232.060, 189.503 224.901, 193.390 194 L 195.591 176.500 202.045 176.822 C 211.508 177.293, 221.539 175.381, 229.656 171.558 C 242.760 165.386, 248.740 156.497, 242.527 152.425 C 240.286 150.957, 239.122 150.940, 230.153 152.239 C 221.174 153.540, 210.986 153.320, 209.458 151.791 C 209.144 151.477, 210.712 148.239, 212.942 144.595 C 235.629 107.528, 249.547 55.489, 241.736 36.936 C 239.543 31.727, 231.697 23.611, 223.657 18.233 C 210.511 9.441, 194.144 5.746, 174.500 7.137" stroke="none" fill="#000000" fill-rule="evenodd"/><path d="M 165.236 8.435 C 161.241 9.193, 156.607 10.290, 154.938 10.872 C 152.891 11.585, 150.246 11.616, 146.815 10.965 C 139.330 9.545, 124.296 9.812, 118.048 11.475 C 115.050 12.273, 110.394 14.068, 107.701 15.465 L 102.806 18.005 94.623 15.509 C 82.622 11.849, 67.023 9.702, 57.468 10.395 C 28.351 12.509, 13.037 28.904, 11.374 59.745 C 10.673 72.730, 12.141 82.768, 18.532 108.711 C 28.505 149.191, 41.743 176.652, 53.690 181.644 C 62.524 185.335, 67.780 182.342, 82.588 165.185 C 90.461 156.062, 93.642 153.033, 94.858 153.502 C 95.761 153.851, 98.525 154.616, 101 155.204 C 103.475 155.792, 106.102 156.437, 106.837 156.639 C 107.787 156.898, 107.390 157.945, 105.466 160.252 C 101.952 164.467, 99.788 165.569, 91.194 167.524 C 82.746 169.446, 79 172.018, 79 175.898 C 79 181.899, 88.023 186.091, 101.032 186.133 C 109.120 186.160, 115.225 184.376, 120.594 180.417 L 123.688 178.136 124.332 197.318 C 124.686 207.868, 125.450 219.367, 126.029 222.871 C 129.443 243.518, 143.347 252.707, 163.307 247.508 C 176.086 244.180, 183.200 238.416, 186.976 228.331 C 188.661 223.831, 192.516 199.803, 194.490 181.500 L 195.137 175.500 203.952 175.845 C 214.451 176.256, 221.485 174.949, 229.710 171.059 C 241.251 165.601, 247.172 158.067, 243.299 153.769 C 241.718 152.016, 240.710 151.853, 235 152.423 C 217.739 154.146, 214.465 154.206, 211.332 152.861 L 208.163 151.500 212.199 145 C 219.262 133.625, 229.798 110.844, 234.421 96.949 C 240.223 79.513, 243.088 65.148, 243.170 53.086 C 243.267 38.872, 242.112 35.973, 232.565 26.478 C 223.869 17.828, 214.997 12.643, 203.500 9.494 C 195.270 7.240, 174.550 6.666, 165.236 8.435 M 172 14.598 C 164.126 16.054, 164.190 15.914, 169.945 19.061 C 184.303 26.913, 196.418 40.276, 204.537 57.218 C 209.192 66.931, 209.497 69.314, 207.985 84.143 C 207.021 93.602, 206.935 100.209, 207.655 109.521 C 208.783 124.106, 207.958 133.203, 204.975 139.050 C 202.713 143.483, 203.049 145.612, 205.509 142.427 C 206.327 141.367, 210.511 133.525, 214.807 125 C 228.050 98.717, 234.769 76.680, 235.713 56.432 C 236.437 40.904, 235.764 38.906, 227.045 30.681 C 219.845 23.889, 211.173 18.962, 201.955 16.427 C 196.511 14.929, 176.737 13.722, 172 14.598 M 52.263 18.024 C 34.336 20.472, 22.794 32.011, 19.435 50.844 C 17.553 61.396, 17.672 67.856, 20 81.651 C 26.616 120.855, 41.282 161.553, 52.530 171.920 C 59.728 178.556, 62.134 177.632, 74.471 163.500 C 78.792 158.550, 83.424 153.303, 84.764 151.840 L 87.201 149.181 83.006 143.625 C 75.395 133.544, 75.008 130.879, 76.003 95.382 C 76.909 63.043, 77.451 58.819, 82.363 45.768 C 84.917 38.982, 88.311 33.024, 93.111 26.898 L 95.933 23.297 92.217 22.185 C 79.483 18.377, 62.574 16.616, 52.263 18.024 M 119.024 18.543 C 116.013 19.385, 111.731 21.140, 109.510 22.441 C 103.578 25.918, 95.643 34.783, 91.994 42.011 C 88.570 48.794, 84 65.123, 84 70.573 L 84 73.889 89.750 71.248 C 98.108 67.409, 110.815 66.927, 116.497 70.234 C 118.754 71.547, 121.457 74.306, 122.705 76.568 C 127.048 84.442, 129.317 106.784, 127.009 118.954 C 126.464 121.829, 124.021 129.203, 121.580 135.340 C 115.157 151.496, 115.253 150.625, 119.813 151.354 C 124.161 152.049, 128.473 155.544, 130.127 159.712 C 130.803 161.416, 131.173 168.915, 131.078 179 C 130.993 188.075, 131.386 202.025, 131.951 210 C 132.895 223.324, 133.243 225.025, 136.239 230.970 C 141.651 241.707, 148.819 244.142, 163.240 240.143 C 174.386 237.052, 179.248 231.928, 181.880 220.500 C 183.303 214.317, 188.999 169.329, 189.004 164.225 C 189.008 159.694, 191.943 154.613, 195.973 152.163 L 198.963 150.344 196.098 146.422 C 190.220 138.378, 176.021 110.101, 173.110 100.645 C 170.682 92.757, 170.349 82.494, 172.364 77.671 C 175.304 70.635, 183.042 66.689, 194.130 66.571 C 201.616 66.491, 201.503 66.851, 196.901 57.784 C 188.088 40.421, 171.689 25.908, 154.631 20.374 C 144.322 17.029, 127.525 16.166, 119.024 18.543 M 184.378 75.437 C 179.780 77.438, 178 80.609, 178 86.796 C 178 95.549, 182.256 106.634, 193.795 127.936 L 198.365 136.372 199.606 132.936 C 201.161 128.633, 201.295 118.202, 199.946 106.500 C 198.987 98.179, 199.608 87.189, 201.627 76.750 L 202.159 74 194.829 74.039 C 190.798 74.061, 186.095 74.690, 184.378 75.437 M 96 76.564 C 93.525 77.347, 89.755 79.003, 87.621 80.244 L 83.742 82.500 83.244 99.500 C 82.474 125.828, 82.538 127.055, 84.991 132.758 C 88.699 141.377, 98.522 149, 105.921 149 C 108.432 149, 109.053 148.484, 109.831 145.750 C 110.339 143.963, 112.580 138, 114.811 132.500 C 121.328 116.429, 122.193 107.189, 118.931 88.505 C 117.940 82.832, 117.094 80.894, 114.455 78.255 C 111.565 75.365, 110.599 75.008, 105.850 75.070 C 102.907 75.108, 98.475 75.780, 96 76.564 M 185.250 78.031 C 180.921 79.771, 183.255 84, 188.545 84 C 192.111 84, 195.564 80.912, 194.653 78.537 C 193.995 76.823, 188.933 76.551, 185.250 78.031 M 102.667 79.667 C 100.113 82.221, 104.028 87, 108.674 87 C 111.561 87, 115 84.462, 115 82.332 C 115 79.987, 104.595 77.738, 102.667 79.667 M 200.500 158.151 C 197.478 159.809, 196 162.087, 196 165.084 C 196 168.449, 197.398 169.004, 205.832 168.985 C 214.863 168.965, 224.464 166.552, 230.227 162.854 C 232.852 161.170, 235 159.685, 235 159.554 C 235 159.424, 232.863 159.669, 230.250 160.099 C 227.637 160.529, 222.575 160.888, 219 160.896 C 213.316 160.910, 210.530 160.310, 204 157.662 C 203.175 157.327, 201.600 157.548, 200.500 158.151 M 113.774 161.725 C 105.927 170.652, 104.423 171.534, 91 175.078 L 86.500 176.266 90 177.557 C 94.272 179.133, 105.178 179.356, 110.169 177.970 C 115.203 176.571, 124 168.553, 124 165.362 C 124 162.928, 120.030 158, 118.070 158 C 117.508 158, 115.575 159.676, 113.774 161.725" stroke="none" fill="#f6f7f8" fill-rule="evenodd"/><path d="M 169.813 7.683 C 170.534 7.972, 171.397 7.936, 171.729 7.604 C 172.061 7.272, 171.471 7.036, 170.417 7.079 C 169.252 7.127, 169.015 7.364, 169.813 7.683 M 193.813 7.683 C 194.534 7.972, 195.397 7.936, 195.729 7.604 C 196.061 7.272, 195.471 7.036, 194.417 7.079 C 193.252 7.127, 193.015 7.364, 193.813 7.683 M 129.750 9.723 C 131.537 9.945, 134.463 9.945, 136.250 9.723 C 138.037 9.502, 136.575 9.320, 133 9.320 C 129.425 9.320, 127.963 9.502, 129.750 9.723 M 51.750 10.662 C 52.438 10.940, 53.563 10.940, 54.250 10.662 C 54.938 10.385, 54.375 10.158, 53 10.158 C 51.625 10.158, 51.063 10.385, 51.750 10.662 M 69.750 10.662 C 70.438 10.940, 71.563 10.940, 72.250 10.662 C 72.938 10.385, 72.375 10.158, 71 10.158 C 69.625 10.158, 69.063 10.385, 69.750 10.662 M 144.813 10.683 C 145.534 10.972, 146.397 10.936, 146.729 10.604 C 147.061 10.272, 146.471 10.036, 145.417 10.079 C 144.252 10.127, 144.015 10.364, 144.813 10.683 M 77.813 11.683 C 78.534 11.972, 79.397 11.936, 79.729 11.604 C 80.061 11.272, 79.471 11.036, 78.417 11.079 C 77.252 11.127, 77.015 11.364, 77.813 11.683 M 150.813 11.683 C 151.534 11.972, 152.397 11.936, 152.729 11.604 C 153.061 11.272, 152.471 11.036, 151.417 11.079 C 150.252 11.127, 150.015 11.364, 150.813 11.683 M 172 14.598 C 164.126 16.054, 164.190 15.914, 169.945 19.061 C 184.303 26.913, 196.418 40.276, 204.537 57.218 C 209.192 66.931, 209.497 69.314, 207.985 84.143 C 207.021 93.602, 206.935 100.209, 207.655 109.521 C 208.783 124.106, 207.958 133.203, 204.975 139.050 C 202.713 143.483, 203.049 145.612, 205.509 142.427 C 206.327 141.367, 210.511 133.525, 214.807 125 C 228.050 98.717, 234.769 76.680, 235.713 56.432 C 236.437 40.904, 235.764 38.906, 227.045 30.681 C 219.845 23.889, 211.173 18.962, 201.955 16.427 C 196.511 14.929, 176.737 13.722, 172 14.598 M 52.263 18.024 C 34.336 20.472, 22.794 32.011, 19.435 50.844 C 17.553 61.396, 17.672 67.856, 20 81.651 C 26.616 120.855, 41.282 161.553, 52.530 171.920 C 59.728 178.556, 62.134 177.632, 74.471 163.500 C 78.792 158.550, 83.424 153.303, 84.764 151.840 L 87.201 149.181 83.006 143.625 C 75.395 133.544, 75.008 130.879, 76.003 95.382 C 76.909 63.043, 77.451 58.819, 82.363 45.768 C 84.917 38.982, 88.311 33.024, 93.111 26.898 L 95.933 23.297 92.217 22.185 C 79.483 18.377, 62.574 16.616, 52.263 18.024 M 119.024 18.543 C 116.013 19.385, 111.731 21.140, 109.510 22.441 C 103.578 25.918, 95.643 34.783, 91.994 42.011 C 88.570 48.794, 84 65.123, 84 70.573 L 84 73.889 89.750 71.248 C 98.108 67.409, 110.815 66.927, 116.497 70.234 C 118.754 71.547, 121.457 74.306, 122.705 76.568 C 127.048 84.442, 129.317 106.784, 127.009 118.954 C 126.464 121.829, 124.021 129.203, 121.580 135.340 C 115.157 151.496, 115.253 150.625, 119.813 151.354 C 124.161 152.049, 128.473 155.544, 130.127 159.712 C 130.803 161.416, 131.173 168.915, 131.078 179 C 130.993 188.075, 131.386 202.025, 131.951 210 C 132.895 223.324, 133.243 225.025, 136.239 230.970 C 141.651 241.707, 148.819 244.142, 163.240 240.143 C 174.386 237.052, 179.248 231.928, 181.880 220.500 C 183.303 214.317, 188.999 169.329, 189.004 164.225 C 189.008 159.694, 191.943 154.613, 195.973 152.163 L 198.963 150.344 196.098 146.422 C 190.220 138.378, 176.021 110.101, 173.110 100.645 C 170.682 92.757, 170.349 82.494, 172.364 77.671 C 175.304 70.635, 183.042 66.689, 194.130 66.571 C 201.616 66.491, 201.503 66.851, 196.901 57.784 C 188.088 40.421, 171.689 25.908, 154.631 20.374 C 144.322 17.029, 127.525 16.166, 119.024 18.543 M 23.946 23.750 L 20.500 27.500 24.250 24.054 C 27.740 20.846, 28.460 20, 27.696 20 C 27.529 20, 25.842 21.688, 23.946 23.750 M 232.958 26.250 C 235.410 28.863, 237.548 31, 237.708 31 C 238.459 31, 237.665 30.102, 233.250 25.958 L 228.500 21.500 232.958 26.250 M 243.232 47 C 243.232 48.925, 243.438 49.712, 243.689 48.750 C 243.941 47.788, 243.941 46.212, 243.689 45.250 C 243.438 44.288, 243.232 45.075, 243.232 47 M 11.158 54 C 11.158 55.375, 11.385 55.938, 11.662 55.250 C 11.940 54.563, 11.940 53.438, 11.662 52.750 C 11.385 52.063, 11.158 52.625, 11.158 54 M 243.252 56.500 C 243.263 58.700, 243.468 59.482, 243.707 58.238 C 243.946 56.994, 243.937 55.194, 243.687 54.238 C 243.437 53.282, 243.241 54.300, 243.252 56.500 M 242.079 66.583 C 242.127 67.748, 242.364 67.985, 242.683 67.188 C 242.972 66.466, 242.936 65.603, 242.604 65.271 C 242.272 64.939, 242.036 65.529, 242.079 66.583 M 11.079 75.583 C 11.127 76.748, 11.364 76.985, 11.683 76.188 C 11.972 75.466, 11.936 74.603, 11.604 74.271 C 11.272 73.939, 11.036 74.529, 11.079 75.583 M 184.378 75.437 C 179.780 77.438, 178 80.609, 178 86.796 C 178 95.549, 182.256 106.634, 193.795 127.936 L 198.365 136.372 199.606 132.936 C 201.161 128.633, 201.295 118.202, 199.946 106.500 C 198.987 98.179, 199.608 87.189, 201.627 76.750 L 202.159 74 194.829 74.039 C 190.798 74.061, 186.095 74.690, 184.378 75.437 M 96 76.564 C 93.525 77.347, 89.755 79.003, 87.621 80.244 L 83.742 82.500 83.244 99.500 C 82.474 125.828, 82.538 127.055, 84.991 132.758 C 88.699 141.377, 98.522 149, 105.921 149 C 108.432 149, 109.053 148.484, 109.831 145.750 C 110.339 143.963, 112.580 138, 114.811 132.500 C 121.328 116.429, 122.193 107.189, 118.931 88.505 C 117.940 82.832, 117.094 80.894, 114.455 78.255 C 111.565 75.365, 110.599 75.008, 105.850 75.070 C 102.907 75.108, 98.475 75.780, 96 76.564 M 185.250 78.031 C 180.921 79.771, 183.255 84, 188.545 84 C 192.111 84, 195.564 80.912, 194.653 78.537 C 193.995 76.823, 188.933 76.551, 185.250 78.031 M 102.667 79.667 C 100.113 82.221, 104.028 87, 108.674 87 C 111.561 87, 115 84.462, 115 82.332 C 115 79.987, 104.595 77.738, 102.667 79.667 M 15.079 97.583 C 15.127 98.748, 15.364 98.985, 15.683 98.188 C 15.972 97.466, 15.936 96.603, 15.604 96.271 C 15.272 95.939, 15.036 96.529, 15.079 97.583 M 236.250 151.689 C 237.213 151.941, 238.787 151.941, 239.750 151.689 C 240.713 151.438, 239.925 151.232, 238 151.232 C 236.075 151.232, 235.287 151.438, 236.250 151.689 M 229.813 152.683 C 230.534 152.972, 231.397 152.936, 231.729 152.604 C 232.061 152.272, 231.471 152.036, 230.417 152.079 C 229.252 152.127, 229.015 152.364, 229.813 152.683 M 242 152.378 C 242 152.585, 242.787 153.373, 243.750 154.128 C 245.336 155.371, 245.371 155.336, 244.128 153.750 C 242.821 152.084, 242 151.555, 242 152.378 M 89.946 156.750 L 86.500 160.500 90.489 157 C 92.683 155.075, 94.670 153.387, 94.906 153.250 C 95.141 153.113, 94.897 153, 94.363 153 C 93.829 153, 91.842 154.688, 89.946 156.750 M 214.250 153.689 C 215.213 153.941, 216.787 153.941, 217.750 153.689 C 218.713 153.438, 217.925 153.232, 216 153.232 C 214.075 153.232, 213.287 153.438, 214.250 153.689 M 222.269 153.693 C 223.242 153.947, 224.592 153.930, 225.269 153.656 C 225.946 153.382, 225.150 153.175, 223.500 153.195 C 221.850 153.215, 221.296 153.439, 222.269 153.693 M 104.765 156.708 C 106.071 156.959, 106.746 157.601, 106.360 158.226 C 105.958 158.877, 106.158 159.020, 106.862 158.585 C 108.585 157.520, 107.219 155.979, 104.691 156.136 C 102.516 156.271, 102.517 156.276, 104.765 156.708 M 200.500 158.151 C 197.478 159.809, 196 162.087, 196 165.084 C 196 168.449, 197.398 169.004, 205.832 168.985 C 214.863 168.965, 224.464 166.552, 230.227 162.854 C 232.852 161.170, 235 159.685, 235 159.554 C 235 159.424, 232.863 159.669, 230.250 160.099 C 227.637 160.529, 222.575 160.888, 219 160.896 C 213.316 160.910, 210.530 160.310, 204 157.662 C 203.175 157.327, 201.600 157.548, 200.500 158.151 M 113.774 161.725 C 105.927 170.652, 104.423 171.534, 91 175.078 L 86.500 176.266 90 177.557 C 94.272 179.133, 105.178 179.356, 110.169 177.970 C 115.203 176.571, 124 168.553, 124 165.362 C 124 162.928, 120.030 158, 118.070 158 C 117.508 158, 115.575 159.676, 113.774 161.725 M 240.405 164.250 L 238.500 166.500 240.750 164.595 C 242.864 162.805, 243.455 162, 242.655 162 C 242.465 162, 241.453 163.012, 240.405 164.250 M 81.405 166.250 L 79.500 168.500 81.750 166.595 C 83.864 164.805, 84.455 164, 83.655 164 C 83.465 164, 82.453 165.012, 81.405 166.250 M 75.405 173.250 L 73.500 175.500 75.750 173.595 C 77.864 171.805, 78.455 171, 77.655 171 C 77.465 171, 76.453 172.012, 75.405 173.250 M 44 174.313 C 44 174.485, 45.462 175.948, 47.250 177.563 L 50.500 180.500 47.563 177.250 C 44.825 174.221, 44 173.540, 44 174.313 M 195 176.059 C 195 176.641, 195.450 176.840, 196 176.500 C 196.550 176.160, 197 175.684, 197 175.441 C 197 175.198, 196.550 175, 196 175 C 195.450 175, 195 175.477, 195 176.059 M 216.813 175.683 C 217.534 175.972, 218.397 175.936, 218.729 175.604 C 219.061 175.272, 218.471 175.036, 217.417 175.079 C 216.252 175.127, 216.015 175.364, 216.813 175.683 M 202.750 176.723 C 204.537 176.945, 207.463 176.945, 209.250 176.723 C 211.037 176.502, 209.575 176.320, 206 176.320 C 202.425 176.320, 200.963 176.502, 202.750 176.723 M 194.158 183 C 194.158 184.375, 194.385 184.938, 194.662 184.250 C 194.940 183.563, 194.940 182.438, 194.662 181.750 C 194.385 181.063, 194.158 181.625, 194.158 183 M 96.269 186.693 C 97.242 186.947, 98.592 186.930, 99.269 186.656 C 99.946 186.382, 99.150 186.175, 97.500 186.195 C 95.850 186.215, 95.296 186.439, 96.269 186.693 M 103.269 186.693 C 104.242 186.947, 105.592 186.930, 106.269 186.656 C 106.946 186.382, 106.150 186.175, 104.500 186.195 C 102.850 186.215, 102.296 186.439, 103.269 186.693 M 193.158 192 C 193.158 193.375, 193.385 193.938, 193.662 193.250 C 193.940 192.563, 193.940 191.438, 193.662 190.750 C 193.385 190.063, 193.158 190.625, 193.158 192 M 192.079 199.583 C 192.127 200.748, 192.364 200.985, 192.683 200.188 C 192.972 199.466, 192.936 198.603, 192.604 198.271 C 192.272 197.939, 192.036 198.529, 192.079 199.583 M 124.272 209 C 124.272 211.475, 124.467 212.488, 124.706 211.250 C 124.944 210.012, 124.944 207.988, 124.706 206.750 C 124.467 205.512, 124.272 206.525, 124.272 209 M 191.158 207 C 191.158 208.375, 191.385 208.938, 191.662 208.250 C 191.940 207.563, 191.940 206.438, 191.662 205.750 C 191.385 205.063, 191.158 205.625, 191.158 207 M 190.079 213.583 C 190.127 214.748, 190.364 214.985, 190.683 214.188 C 190.972 213.466, 190.936 212.603, 190.604 212.271 C 190.272 211.939, 190.036 212.529, 190.079 213.583 M 125.158 221 C 125.158 222.375, 125.385 222.938, 125.662 222.250 C 125.940 221.563, 125.940 220.438, 125.662 219.750 C 125.385 219.063, 125.158 219.625, 125.158 221 M 159.813 248.683 C 160.534 248.972, 161.397 248.936, 161.729 248.604 C 162.061 248.272, 161.471 248.036, 160.417 248.079 C 159.252 248.127, 159.015 248.364, 159.813 248.683 M 150.250 249.689 C 151.213 249.941, 152.787 249.941, 153.750 249.689 C 154.713 249.438, 153.925 249.232, 152 249.232 C 150.075 249.232, 149.287 249.438, 150.250 249.689" stroke="none" fill="#2d537a" fill-rule="evenodd"/></svg>